<?xml version="1.0" encoding="UTF-8"?>
<svg id="Layer_1" data-name="Layer 1" xmlns="http://www.w3.org/2000/svg" viewBox="0 0 396.31 69.56">
  <defs>
    <style>
      .cls-1 {
        fill: #fff;
      }
    </style>
  </defs>
  <path class="cls-1" d="m22.05,54.76c-3.95,0-6.88-1.03-8.81-3.1s-2.89-4.7-2.89-7.9v-17.6c0-.55-.45-1-1-1H1c-.55,0-1-.45-1-1v-6.58c0-.55.45-1,1-1h5.73c1.63,0,2.79-.32,3.48-.96.69-.64,1.04-1.82,1.04-3.55v-7.95c0-.55.45-1,1-1h8.06c.55,0,1,.45,1,1v11.47c0,.55.45,1,1,1h12.87c.55,0,1,.45,1,1v6.58c0,.55-.45,1-1,1h-12.87c-.55,0-1,.45-1,1v19.02c0,.55.45,1,1,1h12.87c.55,0,1,.45,1,1v6.58c0,.55-.45,1-1,1h-13.13Z"/>
  <path class="cls-1" d="m58.57,55.65c-2.96,0-5.62-.46-7.99-1.37s-4.38-2.23-6.03-3.96c-1.65-1.73-2.92-3.82-3.81-6.29-.89-2.47-1.33-5.25-1.33-8.36s.44-5.89,1.33-8.36c.89-2.47,2.16-4.56,3.81-6.29,1.65-1.73,3.66-3.05,6.03-3.96,2.37-.91,5.03-1.37,7.99-1.37s5.62.46,7.99,1.37c2.37.91,4.38,2.23,6.03,3.96,1.65,1.73,2.92,3.82,3.81,6.29.89,2.47,1.33,5.25,1.33,8.36s-.44,5.9-1.33,8.36c-.89,2.47-2.16,4.56-3.81,6.29-1.65,1.73-3.66,3.05-6.03,3.96-2.37.91-5.03,1.37-7.99,1.37Zm0-8.14c2.47,0,4.39-.76,5.77-2.29,1.38-1.53,2.07-3.7,2.07-6.51v-6.07c0-2.81-.69-4.98-2.07-6.51-1.38-1.53-3.31-2.29-5.77-2.29s-4.39.77-5.77,2.29c-1.38,1.53-2.07,3.7-2.07,6.51v6.07c0,2.81.69,4.98,2.07,6.51,1.38,1.53,3.3,2.29,5.77,2.29Z"/>
  <path class="cls-1" d="m82.58,1.65c0-.55.45-1,1-1h8.95c.55,0,1,.45,1,1v29.79c0,.16.13.29.29.29.15,0,.29-.06.38-.18l4.96-5.82,7.7-8.2c.19-.2.45-.32.73-.32h10.86c.22,0,.42.13.5.33s.04.43-.11.59l-13.59,13.87c-.18.18-.2.46-.05.66l15.5,21.88c.12.17.13.38.04.56s-.28.29-.48.29h-11.44c-.34,0-.65-.17-.84-.45l-10.13-15.4c-.17-.25-.43-.41-.73-.45s-.6.08-.81.29l-2.47,2.47c-.19.19-.29.44-.29.71v11.83c0,.55-.45,1-1,1h-8.95c-.55,0-1-.45-1-1V1.65Z"/>
  <path class="cls-1" d="m151.76,17.04c.1-.28.36-.46.65-.46h9.2c.33,0,.64.17.83.44s.22.63.1.93l-17.42,42.95c-1.13,2.81-2.64,4.96-4.51,6.44-1.88,1.48-4.44,2.22-7.7,2.22h-6.55c-.55,0-1-.45-1-1v-6.58c0-.55.45-1,1-1h7.48c.42,0,.79-.26.94-.65l1.99-5.42c.09-.23.08-.49-.01-.72l-14.84-36.6c-.09-.23-.06-.48.07-.68s.36-.32.61-.32h9.97c.43,0,.81.27.95.67l5.32,15.39,3.48,11.1h.59l3.33-11.1,5.53-15.6Z"/>
  <path class="cls-1" d="m181.62,55.65c-2.96,0-5.62-.46-7.99-1.37s-4.38-2.23-6.03-3.96c-1.65-1.73-2.92-3.82-3.81-6.29-.89-2.47-1.33-5.25-1.33-8.36s.44-5.89,1.33-8.36c.89-2.47,2.16-4.56,3.81-6.29,1.65-1.73,3.66-3.05,6.03-3.96,2.37-.91,5.03-1.37,7.99-1.37s5.62.46,7.99,1.37c2.37.91,4.38,2.23,6.03,3.96,1.65,1.73,2.92,3.82,3.81,6.29.89,2.47,1.33,5.25,1.33,8.36s-.44,5.9-1.33,8.36c-.89,2.47-2.16,4.56-3.81,6.29-1.65,1.73-3.66,3.05-6.03,3.96-2.37.91-5.03,1.37-7.99,1.37Zm0-8.14c2.47,0,4.39-.76,5.77-2.29,1.38-1.53,2.07-3.7,2.07-6.51v-6.07c0-2.81-.69-4.98-2.07-6.51-1.38-1.53-3.31-2.29-5.77-2.29s-4.39.77-5.77,2.29c-1.38,1.53-2.07,3.7-2.07,6.51v6.07c0,2.81.69,4.98,2.07,6.51,1.38,1.53,3.3,2.29,5.77,2.29Z"/>
  <path class="cls-1" d="m229.1,34.15c0-.55-.45-1-1-1h-11.02c-.55,0-1,.45-1,1v19.61c0,.55-.45,1-1,1h-9.17c-.55,0-1-.45-1-1V4.11c0-.55.45-1,1-1h9.17c.55,0,1,.45,1,1v19.94h13.02V4.11c0-.55.45-1,1-1h9.17c.55,0,1,.45,1,1v49.65c0,.55-.45,1-1,1h-9.17c-.55,0-1-.45-1-1v-19.61Z"/>
  <path class="cls-1" d="m263.6,55.65c-2.96,0-5.62-.46-7.99-1.37s-4.38-2.23-6.03-3.96c-1.65-1.73-2.92-3.82-3.81-6.29-.89-2.47-1.33-5.25-1.33-8.36s.44-5.89,1.33-8.36c.89-2.47,2.16-4.56,3.81-6.29,1.65-1.73,3.66-3.05,6.03-3.96,2.37-.91,5.03-1.37,7.99-1.37s5.62.46,7.99,1.37c2.37.91,4.38,2.23,6.03,3.96,1.65,1.73,2.92,3.82,3.81,6.29.89,2.47,1.33,5.25,1.33,8.36s-.44,5.9-1.33,8.36c-.89,2.47-2.16,4.56-3.81,6.29-1.65,1.73-3.66,3.05-6.03,3.96-2.37.91-5.03,1.37-7.99,1.37Zm0-8.14c2.47,0,4.39-.76,5.77-2.29,1.38-1.53,2.07-3.7,2.07-6.51v-6.07c0-2.81-.69-4.98-2.07-6.51-1.38-1.53-3.31-2.29-5.77-2.29s-4.39.77-5.77,2.29c-1.38,1.53-2.07,3.7-2.07,6.51v6.07c0,2.81.69,4.98,2.07,6.51,1.38,1.53,3.3,2.29,5.77,2.29Z"/>
  <path class="cls-1" d="m305.87,54.76c-3.95,0-6.88-1.03-8.81-3.1-1.92-2.07-2.89-4.7-2.89-7.9v-17.6c0-.55-.45-1-1-1h-8.36c-.55,0-1-.45-1-1v-6.58c0-.55.45-1,1-1h5.73c1.63,0,2.79-.32,3.48-.96.69-.64,1.04-1.82,1.04-3.55v-7.95c0-.55.45-1,1-1h8.06c.55,0,1,.45,1,1v11.47c0,.55.45,1,1,1h12.87c.55,0,1,.45,1,1v6.58c0,.55-.45,1-1,1h-12.87c-.55,0-1,.45-1,1v19.02c0,.55.45,1,1,1h12.87c.55,0,1,.45,1,1v6.58c0,.55-.45,1-1,1h-13.13Z"/>
  <path class="cls-1" d="m342.06,55.65c-6.41,0-11.27-1.78-14.58-5.33-3.31-3.55-4.96-8.39-4.96-14.5,0-3.11.43-5.91,1.29-8.4.86-2.49,2.1-4.61,3.7-6.36,1.6-1.75,3.55-3.08,5.85-4,2.29-.91,4.87-1.37,7.73-1.37s5.43.46,7.7,1.37c2.27.91,4.19,2.21,5.77,3.88,1.58,1.68,2.8,3.71,3.66,6.11.86,2.39,1.29,5.07,1.29,8.03v2.26c0,.55-.45,1-1,1h-24.46c-.37,0-.67.3-.67.67,0,2.47.76,4.45,2.29,5.96,1.53,1.51,3.77,2.26,6.73,2.26,2.27,0,4.22-.43,5.85-1.29,1.31-.7,2.48-1.58,3.51-2.64.19-.2.46-.31.73-.31s.54.12.73.32l4.57,4.97c.35.38.35.97,0,1.36-1.42,1.53-3.29,2.88-5.61,4.04-2.66,1.33-6.04,2-10.14,2Zm-.89-32.12c-2.37,0-4.25.73-5.66,2.18-1.41,1.46-2.11,3.42-2.11,5.88,0,.33.26.59.59.59h14.21c.33,0,.59-.26.59-.59,0-2.52-.68-4.49-2.04-5.92-1.36-1.43-3.22-2.15-5.59-2.15Z"/>
  <path class="cls-1" d="m361.98,47.18c0-.55.45-1,1-1h9.69c.55,0,1-.45,1-1V9.58c0-.55-.45-1-1-1h-9.69c-.55,0-1-.45-1-1V1C361.98.45,362.42,0,362.98,0h20.64C384.17,0,384.62.45,384.62,1v44.18c0,.55.45,1,1,1h9.69c.55,0,1,.45,1,1v6.58c0,.55-.45,1-1,1h-32.34c-.55,0-1-.45-1-1v-6.58Z"/>
</svg>